<svg width="218" height="30" viewBox="0 0 218 30" fill="none" xmlns="http://www.w3.org/2000/svg">
<path d="M5 22H212" stroke="#828282"/>
<circle cx="7" cy="22" r="7" fill="black"/>
<circle cx="109" cy="22" r="7" fill="#828282"/>
<circle cx="211" cy="23" r="7" fill="#828282"/>
<path d="M0.456172 4.6V3.77H2.33617V11H1.41617V4.6H0.456172ZM7.4493 1.58L4.7093 12.7H3.8093L6.5393 1.58H7.4493ZM8.63516 5.59C8.68182 4.97667 8.91849 4.49667 9.34516 4.15C9.77182 3.80333 10.3252 3.63 11.0052 3.63C11.4585 3.63 11.8485 3.71333 12.1752 3.88C12.5085 4.04 12.7585 4.26 12.9252 4.54C13.0985 4.82 13.1852 5.13667 13.1852 5.49C13.1852 5.90333 13.0652 6.26 12.8252 6.56C12.5918 6.86 12.2852 7.05333 11.9052 7.14V7.19C12.3385 7.29667 12.6818 7.50667 12.9352 7.82C13.1885 8.13333 13.3152 8.54333 13.3152 9.05C13.3152 9.43 13.2285 9.77333 13.0552 10.08C12.8818 10.38 12.6218 10.6167 12.2752 10.79C11.9285 10.9633 11.5118 11.05 11.0252 11.05C10.3185 11.05 9.73849 10.8667 9.28516 10.5C8.83182 10.1267 8.57849 9.6 8.52516 8.92H9.40516C9.45182 9.32 9.61516 9.64667 9.89516 9.9C10.1752 10.1533 10.5485 10.28 11.0152 10.28C11.4818 10.28 11.8352 10.16 12.0752 9.92C12.3218 9.67333 12.4452 9.35667 12.4452 8.97C12.4452 8.47 12.2785 8.11 11.9452 7.89C11.6118 7.67 11.1085 7.56 10.4352 7.56H10.2052V6.8H10.4452C11.0585 6.79333 11.5218 6.69333 11.8352 6.5C12.1485 6.3 12.3052 5.99333 12.3052 5.58C12.3052 5.22667 12.1885 4.94333 11.9552 4.73C11.7285 4.51667 11.4018 4.41 10.9752 4.41C10.5618 4.41 10.2285 4.51667 9.97516 4.73C9.72182 4.94333 9.57182 5.23 9.52516 5.59H8.63516Z" fill="black"/>
</svg>
