<svg focusable="false" width="20px" height="20px" viewBox="0 0 15 15" version="1.1" xmlns="http://www.w3.org/2000/svg">
  <path fill="white" fill-rule="nonzero" d="M8.01198594,15 L0.827885,15 C0.370522813,15 0,14.6292475 0,14.1720634 L0,0.827878438 C0,0.370578125 0.370580937,0 0.827885,0 L14.1721734,0 C14.6293609,0 15,0.370578125 15,0.827878438 L15,14.1720634 C15,14.6293056 14.6293028,15 14.1721734,15 L10.3497828,15 L10.3497828,9.19117344 L12.2995378,9.19117344 L12.5914859,6.92737063 L10.3497828,6.92737063 L10.3497828,5.48207531 C10.3497828,4.82665219 10.531785,4.38000312 11.4716531,4.38000312 L12.6704097,4.37947906 L12.6704097,2.35471594 C12.4630894,2.3271275 11.751495,2.26549063 10.92361,2.26549063 C9.19526063,2.26549063 8.01198594,3.32047688 8.01198594,5.25787781 L8.01198594,6.92737063 L6.05722562,6.92737063 L6.05722562,9.19117344 L8.01198594,9.19117344 L8.01198594,15 L8.01198594,15 Z"></path>
</svg>
