<svg width="209" height="233" viewBox="0 0 209 233" fill="none" xmlns="http://www.w3.org/2000/svg">
<path d="M50.8361 164.767C49.6411 163.628 47.9606 162.937 46.0187 162.937C42.583 162.937 40.0996 165.476 40.0996 169.267C40.0996 173.132 42.695 175.597 46.112 175.597C48.0913 175.597 49.6784 174.999 51.0602 173.804V177.016C49.5291 177.931 47.8299 178.304 46.0187 178.304C40.6224 178.304 37.0187 174.588 37.0187 169.267C37.0187 163.908 40.8091 160.229 46.0187 160.229C47.8112 160.229 49.4357 160.603 50.8548 161.462V164.767H50.8361Z" fill="#00A0DB"/>
<path d="M59.8548 164.673C63.776 164.673 66.5955 167.437 66.5955 171.507C66.5955 175.541 63.776 178.304 59.8548 178.304C55.971 178.304 53.1328 175.541 53.1328 171.507C53.1515 167.456 55.971 164.673 59.8548 164.673ZM59.8548 167.176C57.6702 167.176 56.083 168.856 56.083 171.507C56.083 174.122 57.6702 175.802 59.8548 175.802C62.0955 175.802 63.6453 174.122 63.6453 171.507C63.6639 168.856 62.0955 167.176 59.8548 167.176Z" fill="#00A0DB"/>
<path d="M69.0042 165.794C70.834 165.084 73.0747 164.673 74.9793 164.673C78.3029 164.673 80.4315 165.943 80.4315 169.622V178.005H77.5373V169.883C77.5373 167.997 76.361 167.325 74.7365 167.325C73.7095 167.325 72.6826 167.474 71.917 167.717V178.024H69.0042V165.794Z" fill="#00A0DB"/>
<path d="M83.0642 174.476C84.2779 175.391 85.7156 175.951 87.0413 175.951C88.3297 175.951 89.1886 175.503 89.1886 174.476C89.1886 173.412 88.4231 173.039 86.7426 172.59C84.0351 171.974 82.8774 170.891 82.8774 168.613C82.8774 165.962 84.8754 164.673 87.5268 164.673C89.0019 164.673 90.1783 164.991 91.2613 165.682V168.371C90.1036 167.549 89.0019 167.045 87.6015 167.045C86.3318 167.045 85.6596 167.661 85.6596 168.52C85.6596 169.379 86.2198 169.808 87.7135 170.219C90.6824 170.873 91.9895 171.993 91.9895 174.346C91.9895 177.09 89.8982 178.323 87.0787 178.323C85.5476 178.323 84.0164 177.912 83.0455 177.259V174.476H83.0642Z" fill="#00A0DB"/>
<path d="M105.695 177.725C104.164 178.118 102.166 178.323 100.635 178.323C96.9003 178.323 94.6036 177.109 94.6036 173.468V164.972H97.4978V173.244C97.4978 175.186 98.6742 175.896 100.597 175.896C101.251 175.896 102.073 175.84 102.838 175.727V164.972H105.714V177.725H105.695Z" fill="#00A0DB"/>
<path d="M124.629 169.659C124.629 167.922 123.62 167.25 122.239 167.25C121.1 167.25 119.942 167.549 119.288 167.848C119.456 168.259 119.587 168.781 119.587 169.491V178.024H116.693V169.659C116.693 167.922 115.722 167.25 114.303 167.25C113.239 167.25 112.417 167.456 111.689 167.698V178.024H108.776V165.831C110.568 165.159 112.566 164.673 114.434 164.673C115.965 164.673 117.178 165.066 117.963 165.7C119.288 165.14 120.763 164.673 122.519 164.673C125.637 164.673 127.485 165.943 127.485 169.566V178.024H124.629V169.659Z" fill="#00A0DB"/>
<path d="M132.9 172.161V172.217C133.068 174.551 135.085 175.802 137.12 175.802C138.913 175.802 140.22 175.391 141.508 174.532V177.09C140.332 177.912 138.595 178.304 136.915 178.304C132.844 178.304 130.081 175.709 130.081 171.601C130.081 167.456 132.788 164.673 136.392 164.673C140.182 164.673 141.994 167.12 141.994 170.686V172.161H132.9ZM139.23 170.275C139.174 168.24 138.166 167.12 136.28 167.12C134.599 167.12 133.367 168.296 132.975 170.275H139.23Z" fill="#00A0DB"/>
<path d="M147.689 178.024H144.776V166.074C146.195 165.271 148.006 164.785 149.873 164.785C150.788 164.785 151.498 164.879 152.375 165.103V167.922C151.554 167.605 150.639 167.512 149.873 167.512C148.996 167.512 148.286 167.68 147.689 167.922V178.024V178.024Z" fill="#00A0DB"/>
<path d="M45.5519 205.062H42.5456V190.217H37V187.566H51.0415V190.217H45.5332V205.062H45.5519Z" fill="#00A0DB"/>
<path d="M53.5061 199.198V199.254C53.6742 201.588 55.6908 202.839 57.7261 202.839C59.5186 202.839 60.8257 202.429 62.114 201.57V204.128C60.9377 204.949 59.2012 205.342 57.5207 205.342C53.4501 205.342 50.6866 202.746 50.6866 198.62C50.6866 194.474 53.3941 191.692 56.9792 191.692C60.7696 191.692 62.5808 194.138 62.5808 197.705V199.18H53.5061V199.198ZM59.836 197.312C59.78 195.277 58.7717 194.157 56.8858 194.157C55.2053 194.157 53.973 195.333 53.5808 197.312H59.836Z" fill="#00A0DB"/>
<path d="M75.4461 195.52C74.3632 194.661 73.2055 194.306 71.9918 194.306C69.6391 194.306 67.8092 195.8 67.8092 198.545C67.8092 201.14 69.5831 202.783 72.1038 202.783C73.3922 202.783 74.5125 202.373 75.5769 201.607V204.371C74.3632 205.043 73.1121 205.342 71.7117 205.342C67.7345 205.342 64.859 202.727 64.859 198.545C64.859 194.325 67.8839 191.711 71.7117 191.711C73.1495 191.711 74.2698 192.028 75.4275 192.682V195.52H75.4461Z" fill="#00A0DB"/>
<path d="M78.359 185.045H81.2719V192.346C82.0001 192.047 83.3071 191.73 84.6889 191.73C87.6391 191.73 89.7864 193.018 89.7864 196.678V205.062H86.8922V196.939C86.8922 195.053 85.7159 194.381 84.0914 194.381C83.0644 194.381 82.0374 194.549 81.2719 194.829V205.08H78.359V185.045Z" fill="#00A0DB"/>
<path d="M93.0166 192.85C94.8465 192.14 97.0871 191.729 98.9917 191.729C102.315 191.729 104.444 192.999 104.444 196.678V205.061H101.55V196.939C101.55 195.053 100.373 194.381 98.749 194.381C97.722 194.381 96.695 194.53 95.9295 194.754V205.061H93.0166V192.85V192.85Z" fill="#00A0DB"/>
<path d="M113.724 191.729C117.645 191.729 120.465 194.493 120.465 198.564C120.465 202.597 117.645 205.36 113.724 205.36C109.84 205.36 107.002 202.597 107.002 198.564C107.002 194.493 109.84 191.729 113.724 191.729ZM113.724 194.232C111.539 194.232 109.952 195.912 109.952 198.564C109.952 201.178 111.539 202.858 113.724 202.858C115.965 202.858 117.515 201.178 117.515 198.564C117.515 195.912 115.965 194.232 113.724 194.232Z" fill="#00A0DB"/>
<path d="M136.43 191.729C140.351 191.729 143.17 194.493 143.17 198.564C143.17 202.597 140.351 205.36 136.43 205.36C132.546 205.36 129.708 202.597 129.708 198.564C129.726 194.493 132.546 191.729 136.43 191.729ZM136.43 194.232C134.245 194.232 132.658 195.912 132.658 198.564C132.658 201.178 134.245 202.858 136.43 202.858C138.67 202.858 140.22 201.178 140.22 198.564C140.239 195.912 138.67 194.232 136.43 194.232Z" fill="#00A0DB"/>
<path d="M154.485 204.539C154.037 204.8 152.992 205.043 151.983 205.043C147.913 205.043 145.056 202.783 145.056 198.451C145.056 194.269 147.913 191.729 152.45 191.729C154.243 191.729 156.073 192.14 157.361 192.663V205.005C157.361 209.281 154 210.663 151.031 210.663C149.444 210.663 147.932 210.308 146.737 209.748V207.078C148.156 207.844 149.5 208.236 151.031 208.236C152.88 208.236 154.467 207.302 154.467 204.856V204.539H154.485ZM154.485 194.605C153.925 194.4 153.216 194.288 152.45 194.288C149.687 194.288 148.006 195.763 148.006 198.433C148.006 200.991 149.649 202.578 152.226 202.578C153.141 202.578 153.795 202.391 154.485 202.13V194.605V194.605Z" fill="#00A0DB"/>
<path d="M165.95 202.298L169.61 192.028H172.616L165.558 210.364H162.701L164.531 205.659L159.135 192.028H162.253L165.95 202.298Z" fill="#00A0DB"/>
<path d="M41.7241 227.786L40.193 231.912H37.0187L43.8154 214.416H47.4938L54.3278 231.912H51.0415L49.5104 227.786H41.7241ZM45.6266 217.254L42.6203 225.321H48.5954L45.6266 217.254Z" fill="#44C8F5"/>
<path d="M55.915 228.383C57.1287 229.298 58.5664 229.858 59.8922 229.858C61.1806 229.858 62.0395 229.41 62.0395 228.383C62.0395 227.319 61.2739 226.945 59.5934 226.497C56.8859 225.881 55.7283 224.798 55.7283 222.52C55.7283 219.868 57.7262 218.58 60.3776 218.58C61.8528 218.58 63.0291 218.898 64.1121 219.588V222.277C62.9544 221.456 61.8528 220.951 60.4523 220.951C59.1826 220.951 58.5104 221.568 58.5104 222.427C58.5104 223.285 59.0706 223.715 60.5644 224.126C63.5333 224.779 64.8403 225.9 64.8403 228.252C64.8403 230.997 62.749 232.229 59.9295 232.229C58.3984 232.229 56.8673 231.819 55.8963 231.165V228.383H55.915Z" fill="#44C8F5"/>
<path d="M67.1184 228.383C68.3321 229.298 69.7698 229.858 71.0955 229.858C72.3839 229.858 73.2428 229.41 73.2428 228.383C73.2428 227.319 72.4773 226.945 70.7968 226.497C68.0893 225.881 66.9316 224.798 66.9316 222.52C66.9316 219.868 68.9296 218.58 71.581 218.58C73.0561 218.58 74.2325 218.898 75.3155 219.588V222.277C74.1578 221.456 73.0561 220.951 71.6557 220.951C70.386 220.951 69.7138 221.568 69.7138 222.427C69.7138 223.285 70.274 223.715 71.7677 224.126C74.7366 224.779 76.0437 225.9 76.0437 228.252C76.0437 230.997 73.9524 232.229 71.1329 232.229C69.6018 232.229 68.0706 231.819 67.0997 231.165V228.383H67.1184Z" fill="#44C8F5"/>
<path d="M84.5581 218.58C88.4792 218.58 91.2987 221.344 91.2987 225.414C91.2987 229.447 88.4792 232.211 84.5581 232.211C80.6742 232.211 77.8361 229.447 77.8361 225.414C77.8361 221.344 80.6742 218.58 84.5581 218.58ZM84.5581 221.082C82.3734 221.082 80.7863 222.763 80.7863 225.414C80.7863 228.028 82.3734 229.709 84.5581 229.709C86.7987 229.709 88.3485 228.028 88.3485 225.414C88.3485 222.763 86.7987 221.082 84.5581 221.082Z" fill="#44C8F5"/>
<path d="M103.753 222.371C102.67 221.512 101.512 221.157 100.317 221.157C97.9647 221.157 96.1348 222.651 96.1348 225.395C96.1348 227.991 97.9086 229.634 100.429 229.634C101.718 229.634 102.838 229.223 103.902 228.458V231.221C102.689 231.893 101.438 232.192 100.037 232.192C96.0601 232.192 93.1846 229.578 93.1846 225.395C93.1846 221.176 96.2095 218.561 100.037 218.561C101.475 218.561 102.595 218.879 103.753 219.532V222.371V222.371Z" fill="#44C8F5"/>
<path d="M105.994 214.864C105.994 213.856 106.853 213.072 107.824 213.072C108.794 213.072 109.653 213.875 109.653 214.864C109.653 215.891 108.794 216.713 107.824 216.713C106.834 216.713 105.994 215.891 105.994 214.864ZM109.28 231.912H106.367V218.86H109.28V231.912Z" fill="#44C8F5"/>
<path d="M119.232 223.173C119.232 221.754 118.168 221.119 116.73 221.119C115.237 221.119 114.042 221.568 112.959 222.184V219.644C114.116 218.991 115.573 218.58 117.197 218.58C120.054 218.58 122.089 219.756 122.089 223.024V231.651C120.857 231.968 119.083 232.173 117.608 232.173C114.228 232.173 111.745 231.146 111.745 228.196C111.745 225.545 114.004 224.256 117.776 224.256H119.214V223.173H119.232ZM119.232 226.198H118C115.965 226.198 114.639 226.777 114.639 228.103C114.639 229.466 115.871 229.989 117.645 229.989C118.093 229.989 118.71 229.933 119.232 229.839V226.198V226.198Z" fill="#44C8F5"/>
<path d="M123.788 218.86H125.768V215.686H128.662V218.86H132.378V221.306H128.662V227.524C128.662 229.092 129.334 229.615 130.454 229.615C131.313 229.615 132.041 229.354 132.844 228.887V231.501C131.985 231.949 130.921 232.211 129.689 232.211C127.56 232.211 125.768 231.146 125.768 228.177V221.325H123.788V218.86Z" fill="#44C8F5"/>
<path d="M134.954 214.864C134.954 213.856 135.813 213.072 136.784 213.072C137.755 213.072 138.614 213.875 138.614 214.864C138.614 215.891 137.755 216.713 136.784 216.713C135.813 216.713 134.954 215.891 134.954 214.864ZM138.259 231.912H135.346V218.86H138.259V231.912Z" fill="#44C8F5"/>
<path d="M147.371 218.58C151.293 218.58 154.112 221.344 154.112 225.414C154.112 229.447 151.293 232.211 147.371 232.211C143.488 232.211 140.649 229.447 140.649 225.414C140.668 221.344 143.488 218.58 147.371 218.58ZM147.371 221.082C145.187 221.082 143.6 222.763 143.6 225.414C143.6 228.028 145.187 229.709 147.371 229.709C149.612 229.709 151.162 228.028 151.162 225.414C151.181 222.763 149.612 221.082 147.371 221.082Z" fill="#44C8F5"/>
<path d="M156.521 219.7C158.351 218.991 160.591 218.58 162.496 218.58C165.82 218.58 167.948 219.85 167.948 223.528V231.912H165.073V223.79C165.073 221.904 163.896 221.232 162.272 221.232C161.245 221.232 160.218 221.381 159.452 221.624V231.931H156.539V219.7H156.521Z" fill="#44C8F5"/>
<path d="M126.981 205.36C127.523 205.36 128.046 205.304 128.512 205.192V202.615C128.195 202.727 127.915 202.784 127.56 202.784C126.589 202.784 126.122 202.41 126.122 201.29V185.045H123.191V201.532C123.172 204.389 124.759 205.36 126.981 205.36Z" fill="#00A0DB"/>
<path d="M170.357 216.489C170.805 216.489 171.16 216.657 171.477 216.956C171.776 217.273 171.944 217.647 171.944 218.095C171.944 218.543 171.776 218.916 171.477 219.234C171.178 219.551 170.805 219.7 170.357 219.7C169.927 219.7 169.554 219.532 169.236 219.234C168.919 218.916 168.77 218.543 168.77 218.095C168.77 217.647 168.919 217.273 169.236 216.956C169.554 216.638 169.927 216.489 170.357 216.489ZM172.187 218.076C172.187 217.572 172 217.124 171.645 216.769C171.29 216.414 170.861 216.227 170.357 216.227C169.853 216.227 169.423 216.414 169.068 216.769C168.714 217.124 168.546 217.572 168.546 218.076C168.546 218.599 168.732 219.028 169.068 219.402C169.423 219.775 169.853 219.943 170.357 219.943C170.861 219.943 171.29 219.756 171.645 219.402C172.019 219.047 172.187 218.599 172.187 218.076ZM170.842 217.684C170.842 217.852 170.768 217.945 170.637 218.001C170.562 218.039 170.45 218.057 170.301 218.057H169.983V217.31H170.282C170.469 217.31 170.618 217.329 170.712 217.385C170.805 217.441 170.842 217.534 170.842 217.684ZM169.629 217.068V219.122H169.983V218.3H170.263C170.45 218.3 170.581 218.319 170.655 218.356C170.786 218.431 170.842 218.58 170.842 218.823V218.991L170.861 219.084V219.103H171.197L171.178 219.066L171.16 218.954V218.804V218.673C171.16 218.561 171.122 218.468 171.048 218.356C170.973 218.244 170.861 218.188 170.712 218.151C170.842 218.132 170.936 218.095 171.01 218.057C171.141 217.964 171.197 217.833 171.197 217.647C171.197 217.385 171.104 217.217 170.88 217.124C170.768 217.068 170.581 217.049 170.319 217.049H169.629" fill="#44C8F5"/>
<path d="M112.294 12.3758L115.443 27.7744L78.2531 32.4035L74.8837 0.976318L112.294 12.3758Z" fill="#44C8F5"/>
<path d="M84.2047 95.7303L78.253 32.4036L0 42.26L44.842 120.23L145.233 106.216L84.2047 95.7303Z" fill="#00A0DB"/>
<path d="M209 0L196.908 99.0365L181.981 96.8637L184.973 34.4817L112.294 12.3756L111.255 7.30571L209 0Z" fill="#E1E000"/>
<path d="M127.724 87.8579L115.443 27.7747L78.2529 32.4037L84.2046 95.7304L145.232 106.217L143.375 90.4716L127.724 87.8579Z" fill="#0081BE"/>
<path d="M143.375 90.4712L145.233 106.216L181.194 112.357L181.95 96.8637L143.375 90.4712Z" fill="#44C8F5"/>
<path d="M112.294 12.3755L127.724 87.8574L181.982 96.8636L184.973 34.4816L112.294 12.3755Z" fill="#48BD9C"/>
<path d="M164.945 38.8588C165.607 38.8588 166.142 39.1108 166.583 39.5516C167.024 40.024 167.276 40.5593 167.276 41.2206C167.276 41.8819 167.055 42.4487 166.583 42.8896C166.142 43.3619 165.575 43.5824 164.945 43.5824C164.316 43.5824 163.749 43.3619 163.308 42.8896C162.867 42.4172 162.615 41.8504 162.615 41.2206C162.615 40.5593 162.836 40.024 163.308 39.5516C163.749 39.0793 164.316 38.8588 164.945 38.8588ZM167.654 41.2206C167.654 40.4648 167.37 39.835 166.866 39.2997C166.331 38.7644 165.701 38.481 164.945 38.481C164.19 38.481 163.56 38.7644 163.056 39.2997C162.552 39.835 162.269 40.4648 162.269 41.2206C162.269 41.9764 162.521 42.6377 163.056 43.173C163.591 43.7083 164.221 43.9917 164.945 43.9917C165.701 43.9917 166.331 43.7083 166.866 43.173C167.37 42.6377 167.654 41.9764 167.654 41.2206ZM165.67 40.6223C165.67 40.8742 165.575 41.0317 165.355 41.0946C165.229 41.1576 165.071 41.1576 164.851 41.1576H164.379V40.0555H164.819C165.103 40.0555 165.323 40.087 165.449 40.1814C165.607 40.2444 165.67 40.4019 165.67 40.6223ZM163.875 39.7091V42.7321H164.41V41.5355H164.819C165.103 41.5355 165.292 41.567 165.386 41.63C165.575 41.7559 165.67 41.9764 165.67 42.3228V42.5747L165.701 42.7006V42.7321H166.205L166.174 42.7006L166.142 42.5432V42.3228V42.1023C166.142 41.9449 166.079 41.7874 165.985 41.63C165.89 41.4725 165.701 41.3781 165.481 41.3466C165.67 41.3151 165.827 41.2836 165.922 41.1891C166.111 41.0632 166.205 40.8742 166.205 40.5908C166.205 40.2129 166.048 39.961 165.764 39.835C165.607 39.7721 165.323 39.7091 164.945 39.7091H163.875Z" fill="white"/>
<path d="M76.584 56.0525C72.9311 52.3997 67.5148 50.0694 60.9649 50.0694C50.6676 50.0694 43.8972 57.69 43.8972 68.6801C43.8972 79.9536 51.2344 87.2908 61.4372 87.2908C67.9872 87.2908 72.7107 85.3699 77.5287 81.4021V94.0297C72.2384 97.2102 66.7276 98.2808 60.9649 98.2808C43.047 98.2808 31.3956 86.1256 31.3956 68.7116C31.3956 51.1716 43.5508 39.1108 60.9649 39.1108C66.7591 39.1108 71.9549 40.276 76.584 42.9526V56.0525V56.0525Z" fill="white"/>
<path d="M121.048 86.5984V97.305H83.9525V40.0559H120.481V50.7626H96.0133V63.2956H118.466V73.8134H96.0133V86.6298H121.048V86.5984Z" fill="white"/>
<path d="M126.496 81.9689C130.842 85.2439 135.66 87.8576 142.021 87.8576C146.933 87.8576 151.279 86.1256 151.279 81.4021C151.279 77.0565 147.72 75.419 141.737 73.687C130.275 70.5065 125.551 65.6885 125.551 56.0525C125.551 45.1569 134.022 39.0793 144.634 39.0793C151.09 39.0793 155.813 40.7168 159.876 43.3305V55.3912C155.341 51.7384 150.712 49.5026 145.044 49.5026C140.131 49.5026 137.423 51.9273 137.423 55.4857C137.423 59.5479 140.698 61.1854 147.342 63.0119C158.805 66.2868 163.245 71.3882 163.245 81.0242C163.245 92.959 153.798 98.2808 142.052 98.2808C135.786 98.2808 130.212 96.5489 126.527 94.1241V81.9689H126.496Z" fill="white"/>
<line x1="18" y1="139.229" x2="191.026" y2="139.229" stroke="#A9A9A9" stroke-width="2"/>
</svg>
