<svg width="36" height="36" viewBox="0 0 36 36" fill="none" xmlns="http://www.w3.org/2000/svg">
<g clip-path="url(#clip0_419_713)">
<path d="M17.9944 0.286255C13.1074 0.286255 12.4946 0.306969 10.5753 0.394541C8.66 0.481898 7.35193 0.786112 6.20736 1.23097C5.02407 1.69075 4.02057 2.30604 3.02014 3.3064C2.01979 4.30683 1.4045 5.31033 0.944714 6.49361C0.499857 7.63818 0.195643 8.94625 0.108286 10.8615C0.0207143 12.7808 0 13.3936 0 18.2806C0 23.1675 0.0207143 23.7803 0.108286 25.6996C0.195643 27.6149 0.499857 28.923 0.944714 30.0675C1.4045 31.2508 2.01979 32.2543 3.02014 33.2547C4.02057 34.2551 5.02407 34.8704 6.20736 35.3303C7.35193 35.775 8.66 36.0792 10.5753 36.1666C12.4946 36.2542 13.1074 36.2749 17.9944 36.2749C22.8813 36.2749 23.4941 36.2542 25.4134 36.1666C27.3286 36.0792 28.6367 35.775 29.7813 35.3303C30.9646 34.8704 31.9681 34.2551 32.9685 33.2547C33.9689 32.2543 34.5841 31.2508 35.044 30.0675C35.4888 28.923 35.793 27.6149 35.8804 25.6996C35.9679 23.7803 35.9886 23.1675 35.9886 18.2806C35.9886 13.3936 35.9679 12.7808 35.8804 10.8615C35.793 8.94625 35.4888 7.63818 35.044 6.49361C34.5841 5.31033 33.9689 4.30683 32.9685 3.3064C31.9681 2.30604 30.9646 1.69075 29.7813 1.23097C28.6367 0.786112 27.3286 0.481898 25.4134 0.394541C23.4941 0.306969 22.8813 0.286255 17.9944 0.286255ZM17.9944 3.52847C22.799 3.52847 23.3681 3.54683 25.2656 3.6334C27.02 3.7134 27.9728 4.00654 28.6069 4.25297C29.4468 4.5794 30.0462 4.96933 30.6759 5.59904C31.3056 6.22868 31.6955 6.82811 32.0219 7.66804C32.2684 8.30211 32.5615 9.2549 32.6415 11.0093C32.7281 12.9068 32.7464 13.4759 32.7464 18.2806C32.7464 23.0853 32.7281 23.6544 32.6415 25.5518C32.5615 27.3063 32.2684 28.259 32.0219 28.8931C31.6955 29.733 31.3056 30.3325 30.6759 30.9621C30.0462 31.5918 29.4468 31.9817 28.6069 32.3082C27.9728 32.5546 27.02 32.8478 25.2656 32.9278C23.3684 33.0143 22.7994 33.0327 17.9944 33.0327C13.1893 33.0327 12.6203 33.0143 10.7231 32.9278C8.96864 32.8478 8.01586 32.5546 7.38179 32.3082C6.54186 31.9817 5.94243 31.5918 5.31279 30.9621C4.68314 30.3325 4.29314 29.733 3.96671 28.8931C3.72029 28.259 3.42714 27.3063 3.34714 25.5518C3.26057 23.6544 3.24221 23.0853 3.24221 18.2806C3.24221 13.4759 3.26057 12.9068 3.34714 11.0093C3.42714 9.2549 3.72029 8.30211 3.96671 7.66804C4.29314 6.82811 4.68307 6.22868 5.31279 5.59904C5.94243 4.96933 6.54186 4.5794 7.38179 4.25297C8.01586 4.00654 8.96864 3.7134 10.7231 3.6334C12.6205 3.54683 13.1896 3.52847 17.9944 3.52847Z" fill="black"/>
<path d="M17.9943 24.2786C14.6815 24.2786 11.9961 21.5932 11.9961 18.2805C11.9961 14.9678 14.6815 12.2824 17.9943 12.2824C21.3069 12.2824 23.9923 14.9678 23.9923 18.2805C23.9923 21.5932 21.3069 24.2786 17.9943 24.2786ZM17.9943 9.04016C12.8909 9.04016 8.75391 13.1772 8.75391 18.2805C8.75391 23.3838 12.8909 27.5208 17.9943 27.5208C23.0976 27.5208 27.2345 23.3838 27.2345 18.2805C27.2345 13.1772 23.0976 9.04016 17.9943 9.04016Z" fill="black"/>
<path d="M29.7591 8.6751C29.7591 9.86768 28.7923 10.8344 27.5997 10.8344C26.4072 10.8344 25.4404 9.86768 25.4404 8.6751C25.4404 7.48253 26.4072 6.51575 27.5997 6.51575C28.7923 6.51575 29.7591 7.48253 29.7591 8.6751Z" fill="black"/>
</g>
<defs>
<clipPath id="clip0_419_713">
<rect width="36" height="36" fill="white"/>
</clipPath>
</defs>
</svg>
