<svg focusable="false" width="20px" height="20px" viewBox="0 0 20 20" version="1.1" xmlns="http://www.w3.org/2000/svg">
  <path fill="white" fill-rule="nonzero" d="M9.99686508,0.159 C7.28186508,0.159 6.94142857,0.170507937 5.87515873,0.21915873 C4.81111111,0.267690476 4.08440476,0.436698413 3.44853175,0.68384127 C2.79115079,0.939277778 2.23365079,1.28110317 1.67785714,1.83685714 C1.12210317,2.39265079 0.780277778,2.95015079 0.52484127,3.60753175 C0.277698413,4.24340476 0.108690476,4.97011111 0.0601587302,6.03415873 C0.0115079365,7.10042857 0,7.44086508 0,10.1558651 C0,12.8708254 0.0115079365,13.2112619 0.0601587302,14.2775317 C0.108690476,15.3415794 0.277698413,16.0682857 0.52484127,16.7041587 C0.780277778,17.3615397 1.12210317,17.9190397 1.67785714,18.4748333 C2.23365079,19.0305873 2.79115079,19.3724127 3.44853175,19.6278889 C4.08440476,19.8749921 4.81111111,20.044 5.87515873,20.0925317 C6.94142857,20.1411825 7.28186508,20.1526905 9.99686508,20.1526905 C12.7118254,20.1526905 13.0522619,20.1411825 14.1185317,20.0925317 C15.1825794,20.044 15.9092857,19.8749921 16.5451587,19.6278889 C17.2025397,19.3724127 17.7600397,19.0305873 18.3158333,18.4748333 C18.8715873,17.9190397 19.2134127,17.3615397 19.4688889,16.7041587 C19.7159921,16.0682857 19.885,15.3415794 19.9335317,14.2775317 C19.9821825,13.2112619 19.9936905,12.8708254 19.9936905,10.1558651 C19.9936905,7.44086508 19.9821825,7.10042857 19.9335317,6.03415873 C19.885,4.97011111 19.7159921,4.24340476 19.4688889,3.60753175 C19.2134127,2.95015079 18.8715873,2.39265079 18.3158333,1.83685714 C17.7600397,1.28110317 17.2025397,0.939277778 16.5451587,0.68384127 C15.9092857,0.436698413 15.1825794,0.267690476 14.1185317,0.21915873 C13.0522619,0.170507937 12.7118254,0.159 9.99686508,0.159 Z M9.99686508,1.96023016 C12.6661111,1.96023016 12.9823016,1.97042857 14.0364286,2.01852381 C15.0111111,2.06296825 15.5404365,2.2258254 15.8926984,2.36273016 C16.3593254,2.54407937 16.6923413,2.76070635 17.0421429,3.11054762 C17.3919841,3.46034921 17.6086111,3.79336508 17.7899603,4.25999206 C17.9268651,4.61225397 18.0897222,5.14157937 18.1341667,6.1162619 C18.1822619,7.17038889 18.1924603,7.48657937 18.1924603,10.1558651 C18.1924603,12.8251111 18.1822619,13.1413016 18.1341667,14.1954286 C18.0897222,15.1701111 17.9268651,15.6994365 17.7899603,16.0516984 C17.6086111,16.5183254 17.3919841,16.8513413 17.0421429,17.2011429 C16.6923413,17.5509841 16.3593254,17.7676111 15.8926984,17.9489603 C15.5404365,18.0858651 15.0111111,18.2487222 14.0364286,18.2931667 C12.9824603,18.3412619 12.6663095,18.3514603 9.99686508,18.3514603 C7.32738095,18.3514603 7.01126984,18.3412619 5.9572619,18.2931667 C4.98257937,18.2487222 4.45325397,18.0858651 4.10099206,17.9489603 C3.63436508,17.7676111 3.30134921,17.5509841 2.95154762,17.2011429 C2.60174603,16.8513413 2.38507937,16.5183254 2.20373016,16.0516984 C2.0668254,15.6994365 1.90396825,15.1701111 1.85952381,14.1954286 C1.81142857,13.1413016 1.80123016,12.8251111 1.80123016,10.1558651 C1.80123016,7.48657937 1.81142857,7.17038889 1.85952381,6.1162619 C1.90396825,5.14157937 2.0668254,4.61225397 2.20373016,4.25999206 C2.38507937,3.79336508 2.60170635,3.46034921 2.95154762,3.11054762 C3.30134921,2.76070635 3.63436508,2.54407937 4.10099206,2.36273016 C4.45325397,2.2258254 4.98257937,2.06296825 5.9572619,2.01852381 C7.01138889,1.97042857 7.32757937,1.96023016 9.99686508,1.96023016 L9.99686508,1.96023016 Z"></path>
  <path fill="white" fill-rule="nonzero" d="M9.99686508,13.488127 C8.15646825,13.488127 6.66456349,11.9962222 6.66456349,10.1558651 C6.66456349,8.31546825 8.15646825,6.82356349 9.99686508,6.82356349 C11.8372222,6.82356349 13.329127,8.31546825 13.329127,10.1558651 C13.329127,11.9962222 11.8372222,13.488127 9.99686508,13.488127 Z M9.99686508,5.02233333 C7.16166667,5.02233333 4.86333333,7.32066667 4.86333333,10.1558651 C4.86333333,12.9910238 7.16166667,15.2893571 9.99686508,15.2893571 C12.8320238,15.2893571 15.1303571,12.9910238 15.1303571,10.1558651 C15.1303571,7.32066667 12.8320238,5.02233333 9.99686508,5.02233333 L9.99686508,5.02233333 Z"></path>
  <path fill="white" fill-rule="nonzero" d="M16.5328175,4.81951587 C16.5328175,5.48205556 15.9957143,6.01911905 15.3331746,6.01911905 C14.6706746,6.01911905 14.1335714,5.48205556 14.1335714,4.81951587 C14.1335714,4.15697619 14.6706746,3.61987302 15.3331746,3.61987302 C15.9957143,3.61987302 16.5328175,4.15697619 16.5328175,4.81951587"></path>
</svg>
