<svg focusable="false" width="20px" height="20px" viewBox="0 0 13 12" version="1.1" xmlns="http://www.w3.org/2000/svg">
  <path fill="white" fill-rule="nonzero" d="M9.38231869,3.57978638 C11.1805554,3.57978638 12.5314259,4.75521918 12.5314259,7.28311738 L12.5314259,12 L9.79698969,12 L9.79698969,7.59810785 C9.79698969,6.49205271 9.4006599,5.73687302 8.41023417,5.73687302 C7.65505449,5.73687302 7.20529594,6.24803477 7.00673233,6.73846298 C6.9341649,6.91469815 6.91662113,7.15791864 6.91662113,7.40512635 L6.91662113,12 L4.18218487,12 C4.18218487,12 4.21727241,4.54389646 4.18218487,3.77276789 L6.91662113,3.77276789 L6.91662113,4.93703646 C6.91183646,4.94660579 6.90545691,4.95697257 6.89907736,4.96414957 L6.91662113,4.96414957 L6.91662113,4.93703646 C7.28105314,4.37643317 7.93097019,3.57978638 9.38231869,3.57978638 Z M1.51855453,-7.99360578e-15 C2.43881941,-7.99360578e-15 3.00350961,0.579696386 3.0215233,1.34134676 C3.0215233,2.08495211 2.43881941,2.68194165 1.50210725,2.68194165 L1.48409355,2.68194165 C0.58262557,2.68194165 0.000704883738,2.08495211 0.000704883738,1.34134676 C0.000704883738,0.579696386 0.60142247,-7.99360578e-15 1.51855453,-7.99360578e-15 Z M0,11.9998405 L0,3.85451731 L2.50625329,3.85451731 L2.50625329,11.9998405 L0,11.9998405 Z"></path>
</svg>
