<svg width="36" height="36" viewBox="0 0 36 36" fill="none" xmlns="http://www.w3.org/2000/svg">
<g clip-path="url(#clip0_419_711)">
<path d="M25.9818 11.2979C30.9615 11.2979 34.7024 14.5529 34.7024 21.5533V34.6154H27.1301V22.4256C27.1301 19.3626 26.0326 17.2714 23.2899 17.2714C21.1986 17.2714 19.9531 18.6869 19.4033 20.045C19.2023 20.533 19.1537 21.2066 19.1537 21.8911V34.6154H11.5814C11.5814 34.6154 11.6786 13.9677 11.5814 11.8323H19.1537V15.0564C19.1405 15.0829 19.1228 15.1116 19.1051 15.1315H19.1537V15.0564C20.1629 13.504 21.9627 11.2979 25.9818 11.2979ZM4.20523 1.38464C6.75365 1.38464 8.31741 2.98996 8.36729 5.09914C8.36729 7.15836 6.75365 8.81156 4.15968 8.81156H4.1098C1.61342 8.81156 0.00195199 7.15836 0.00195199 5.09914C0.00195199 2.98996 1.66548 1.38464 4.20523 1.38464ZM0 34.615V12.0587H6.94039V34.615H0Z" fill="black"/>
</g>
<defs>
<clipPath id="clip0_419_711">
<rect width="36" height="36" fill="white"/>
</clipPath>
</defs>
</svg>
