<svg width="74" height="43" viewBox="0 0 74 43" fill="none" xmlns="http://www.w3.org/2000/svg">
<path d="M39.7597 4.38187L40.8746 9.83403L27.7069 11.473L26.5139 0.345703L39.7597 4.38187Z" fill="#44C8F5"/>
<path d="M29.8141 33.8948L27.7068 11.4729L0 14.9627L15.8771 42.5692L51.4221 37.6076L29.8141 33.8948Z" fill="#00A0DB"/>
<path d="M74 0L69.7186 35.0656L64.4336 34.2962L65.4929 12.2088L39.7595 4.3818L39.3916 2.58671L74 0Z" fill="#E1E000"/>
<path d="M45.2228 31.1075L40.8745 9.83398L27.7068 11.473L29.8141 33.8949L51.422 37.6077L50.7642 32.0329L45.2228 31.1075Z" fill="#0081BE"/>
<path d="M50.7642 32.033L51.422 37.6078L64.1549 39.7819L64.4225 34.2963L50.7642 32.033Z" fill="#44C8F5"/>
<path d="M39.7595 4.38184L45.2228 31.1075L64.4336 34.2963L65.4929 12.2089L39.7595 4.38184Z" fill="#48BD9C"/>
<path d="M58.4018 13.7586C58.636 13.7586 58.8255 13.8477 58.9816 14.0038C59.1377 14.1711 59.2269 14.3606 59.2269 14.5948C59.2269 14.8289 59.1488 15.0296 58.9816 15.1857C58.8255 15.3529 58.6248 15.431 58.4018 15.431C58.1788 15.431 57.9781 15.3529 57.822 15.1857C57.6659 15.0185 57.5767 14.8178 57.5767 14.5948C57.5767 14.3606 57.6548 14.1711 57.822 14.0038C57.9781 13.8366 58.1788 13.7586 58.4018 13.7586ZM59.3607 14.5948C59.3607 14.3272 59.2603 14.1042 59.082 13.9146C58.8924 13.7251 58.6694 13.6248 58.4018 13.6248C58.1342 13.6248 57.9112 13.7251 57.7328 13.9146C57.5544 14.1042 57.4541 14.3272 57.4541 14.5948C57.4541 14.8624 57.5433 15.0965 57.7328 15.2861C57.9224 15.4756 58.1454 15.5759 58.4018 15.5759C58.6694 15.5759 58.8924 15.4756 59.082 15.2861C59.2603 15.0965 59.3607 14.8624 59.3607 14.5948ZM58.6583 14.3829C58.6583 14.4721 58.6248 14.5279 58.5468 14.5502C58.5022 14.5725 58.4464 14.5725 58.3684 14.5725H58.2011V14.1822H58.3572C58.4576 14.1822 58.5356 14.1934 58.5802 14.2268C58.636 14.2491 58.6583 14.3049 58.6583 14.3829ZM58.0227 14.0596V15.13H58.2123V14.7063H58.3572C58.4576 14.7063 58.5245 14.7174 58.5579 14.7397C58.6248 14.7843 58.6583 14.8624 58.6583 14.985V15.0742L58.6694 15.1188V15.13H58.8478L58.8367 15.1188L58.8255 15.0631V14.985V14.907C58.8255 14.8512 58.8032 14.7955 58.7698 14.7397C58.7363 14.684 58.6694 14.6505 58.5914 14.6394C58.6583 14.6282 58.714 14.6171 58.7475 14.5836C58.8144 14.539 58.8478 14.4721 58.8478 14.3718C58.8478 14.238 58.7921 14.1488 58.6917 14.1042C58.636 14.0819 58.5356 14.0596 58.4018 14.0596H58.0227Z" fill="white"/>
<path d="M27.1157 19.8464C25.8223 18.553 23.9046 17.728 21.5855 17.728C17.9395 17.728 15.5424 20.4262 15.5424 24.3174C15.5424 28.309 18.1402 30.9068 21.7527 30.9068C24.0718 30.9068 25.7443 30.2267 27.4502 28.8218V33.2928C25.577 34.419 23.6258 34.798 21.5855 34.798C15.2413 34.798 11.116 30.4943 11.116 24.3285C11.116 18.1182 15.4197 13.8479 21.5855 13.8479C23.637 13.8479 25.4767 14.2604 27.1157 15.2082V19.8464V19.8464Z" fill="white"/>
<path d="M42.8589 30.6615V34.4524H29.7246V14.1824H42.6582V17.9732H33.9949V22.4108H41.9446V26.1348H33.9949V30.6727H42.8589V30.6615Z" fill="white"/>
<path d="M44.7879 29.0225C46.3265 30.182 48.0324 31.1074 50.2846 31.1074C52.024 31.1074 53.5626 30.4942 53.5626 28.8218C53.5626 27.2831 52.3027 26.7033 50.1843 26.0901C46.1258 24.964 44.4534 23.2581 44.4534 19.8463C44.4534 15.9885 47.4526 13.8367 51.21 13.8367C53.4957 13.8367 55.1682 14.4165 56.6065 15.3419V19.6122C55.0009 18.3188 53.3619 17.5272 51.355 17.5272C49.6156 17.5272 48.6568 18.3857 48.6568 19.6456C48.6568 21.0839 49.8163 21.6637 52.1689 22.3104C56.2274 23.4699 57.7995 25.2762 57.7995 28.688C57.7995 32.9137 54.4546 34.798 50.2958 34.798C48.077 34.798 46.1035 34.1847 44.799 33.3262V29.0225H44.7879Z" fill="white"/>
</svg>
