<svg width="24px" height="37px" viewBox="0 0 24 37" version="1.1" xmlns="http://www.w3.org/2000/svg">
                        <path fill="currentColor" fill-rule="nonzero" d="M11.575,8.47032947e-22 C8.50919927,-0.00153047702 5.56835781,1.21488653 3.39942738,3.38165307 C1.23049695,5.54841962 0.011145098,8.48804542 0.00961538462,11.5538462 L1.69406589e-21,24.9673077 C-0.00309178301,29.0964735 2.19693504,32.9136295 5.77135165,34.9808899 C9.34576826,37.0481503 13.7515357,37.0514492 17.3290441,34.9895438 C20.9065524,32.9276383 23.112293,29.1137812 23.1153846,24.9846154 L23.1230769,11.5711538 C23.1283911,5.18814203 17.9599315,0.00849148579 11.5769231,-1.28358759e-15 L11.575,8.47032947e-22 Z M21.8153846,24.6884615 C21.8153846,30.3515044 17.2245813,34.9423077 11.5615385,34.9423077 C5.8984956,34.9423077 1.30769231,30.3515044 1.30769231,24.6884615 L1.30769231,11.7596154 C1.30769231,6.09657253 5.8984956,1.50576923 11.5615385,1.50576923 C17.2245813,1.50576923 21.8153846,6.09657253 21.8153846,11.7596154 L21.8153846,24.6884615 Z M11.5615385,7.86538462 C10.7194607,7.84109868 9.93074398,8.27646999 9.50253787,9.00195211 C9.07433177,9.72743422 9.07433177,10.628335 9.50253787,11.3538171 C9.93074398,12.0792992 10.7194607,12.5146705 11.5615385,12.4903846 C12.8127357,12.4542995 13.8083064,11.4296021 13.8083064,10.1778846 C13.8083064,8.92616708 12.8127357,7.90146976 11.5615385,7.86538462 L11.5615385,7.86538462 Z">
                        </path>
                    </svg>