<svg focusable="false" width="20px" height="20px" viewBox="0 0 18 16" version="1.1" xmlns="http://www.w3.org/2000/svg">
  <path fill="white" fill-rule="nonzero" d="M11.4613574,0.870413029 C9.92571559,1.44967827 8.95566804,2.94602116 9.06665257,4.58191935 L9.10400314,5.21324093 L8.48931954,5.13571021 C6.25468855,4.83887831 4.30072037,3.8343017 2.64235525,2.14523958 L1.83131439,1.30790781 L1.62215122,1.92704598 C1.18034739,3.30598522 1.46314453,4.76245517 2.38410277,5.74266499 C2.87499592,6.28427245 2.76401138,6.36180317 1.91775427,6.03949689 C1.62321838,5.93649179 1.3649659,5.85896107 1.34042124,5.89772643 C1.25504852,5.98854813 1.54958441,7.16036958 1.78222508,7.62444632 C2.10130563,8.26905888 2.75227263,8.90038046 3.46513486,9.27474308 L4.06701255,9.57157498 L3.35521748,9.58486596 C2.66796707,9.58486596 2.64342241,9.59815694 2.71705638,9.86951446 C2.96250296,10.7068462 3.93255051,11.5962344 5.0135826,11.983888 L5.77553414,12.2541379 L5.11282839,12.6661583 C4.12997493,13.2598221 2.97530887,13.5943118 1.8206428,13.6197861 C1.26678727,13.6330771 0.813244683,13.6840259 0.813244683,13.7227912 C0.813244683,13.8512707 2.31260311,14.5723064 3.18340488,14.8569549 C5.79901164,15.6942867 8.90764588,15.3332151 11.2415227,13.9033271 C12.8998878,12.8843519 14.5571858,10.8619077 15.3319432,8.90148804 C15.7502695,7.85814606 16.1675287,5.94978277 16.1675287,5.03602786 C16.1675287,4.44236406 16.2048793,4.36594092 16.8921297,3.65708862 C17.2976501,3.24506822 17.6786259,2.79428247 17.7522599,2.66469541 C17.8749832,2.41991985 17.8621773,2.41991985 17.2368221,2.63811344 C16.1931405,3.02465946 16.0448054,2.9737107 16.5613104,2.39333789 C16.941219,1.98131749 17.3968959,1.23369983 17.3968959,1.01439865 C17.3968959,0.975633292 17.2133446,1.03987303 17.0031142,1.15616911 C16.7822123,1.28464859 16.2913192,1.47847539 15.9220821,1.59366389 L15.2593764,1.81296507 L14.6574987,1.38654611 C14.3256122,1.15506153 13.8592638,0.89699499 13.6138172,0.81946427 C12.9852605,0.638928451 12.0269517,0.66440283 11.4613574,0.870413029 Z"></path>
</svg>
