<svg width="36" height="36" viewBox="0 0 36 36" fill="none" xmlns="http://www.w3.org/2000/svg">
<path d="M22.9227 3.74078C19.8514 4.89931 17.9113 7.892 18.1333 11.1638L18.208 12.4264L16.9786 12.2714C12.5094 11.6777 8.60142 9.66856 5.28469 6.29043L3.6626 4.61577L3.24428 5.85405C2.36067 8.61192 2.92626 11.5249 4.76818 13.4853C5.74997 14.5685 5.528 14.7236 3.83548 14.0789C3.24641 13.8729 2.72991 13.7179 2.68082 13.7954C2.51007 13.9771 3.09914 16.3207 3.56443 17.2488C4.20259 18.5381 5.50452 19.8007 6.93025 20.5494L8.134 21.1431L6.71041 21.1697C5.33591 21.1697 5.28682 21.1963 5.43409 21.739C5.92498 23.4136 7.86508 25.1924 10.0271 25.9677L11.551 26.5082L10.2256 27.3323C8.25992 28.5196 5.95059 29.1886 3.64126 29.2395C2.53355 29.2661 1.62646 29.368 1.62646 29.4455C1.62646 29.7025 4.62518 31.1446 6.36679 31.7139C11.598 33.3885 17.8153 32.6664 22.483 29.8066C25.7998 27.7687 29.1143 23.7238 30.6639 19.8029C31.5005 17.7162 32.335 13.8995 32.335 12.072C32.335 10.8847 32.4097 10.7318 33.7842 9.31413C34.5953 8.49009 35.3572 7.58852 35.5045 7.32935C35.7499 6.83979 35.7243 6.83979 34.4736 7.27618C32.3863 8.04927 32.0896 7.94738 33.1226 6.78663C33.8824 5.96259 34.7938 4.46735 34.7938 4.02875C34.7938 3.95122 34.4267 4.0797 34.0062 4.31229C33.5644 4.56925 32.5826 4.9569 31.8441 5.18728L30.5187 5.62588L29.315 4.77305C28.6512 4.31008 27.7185 3.79394 27.2276 3.63888C25.9705 3.27781 24.0539 3.32876 22.9227 3.74078Z" fill="black"/>
</svg>
